<svg width="29" height="29" viewBox="0 0 29 29" fill="none" xmlns="http://www.w3.org/2000/svg">
<path d="M14.5 0C6.525 0 0 6.525 0 14.5C0 22.475 6.525 29 14.5 29C22.475 29 29 22.475 29 14.5C29 6.525 22.475 0 14.5 0ZM19.865 17.835C20.445 18.415 20.445 19.285 19.865 19.865C19.285 20.445 18.415 20.445 17.835 19.865L14.5 16.53L11.165 19.865C10.585 20.445 9.715 20.445 9.135 19.865C8.555 19.285 8.555 18.415 9.135 17.835L12.47 14.5L9.135 11.165C8.555 10.585 8.555 9.715 9.135 9.135C9.715 8.555 10.585 8.555 11.165 9.135L14.5 12.47L17.835 9.135C18.415 8.555 19.285 8.555 19.865 9.135C20.445 9.715 20.445 10.585 19.865 11.165L16.53 14.5L19.865 17.835Z" fill="#D9D9D9"/>
</svg>
