<svg width="81" height="101" viewBox="0 0 81 101" fill="none" xmlns="http://www.w3.org/2000/svg">
<g filter="url(#filter0_dddd_2_104)">
<circle cx="40.5" cy="29.5" r="27.5" fill="white"/>
<circle cx="40.5" cy="29.5" r="27.45" stroke="#F2F2F2" stroke-width="0.1"/>
</g>
<g clip-path="url(#clip0_2_104)">
<path d="M63 29.5C63 17.0736 52.9264 7 40.5 7C28.0736 7 18 17.0736 18 29.5C18 40.7304 26.2279 50.0387 36.9844 51.7266V36.0039H31.2715V29.5H36.9844V24.543C36.9844 18.9039 40.3435 15.7891 45.4829 15.7891C47.9447 15.7891 50.5195 16.2285 50.5195 16.2285V21.7656H47.6823C44.8873 21.7656 44.0156 23.5 44.0156 25.2794V29.5H50.2559L49.2583 36.0039H44.0156V51.7266C54.7721 50.0387 63 40.7304 63 29.5Z" fill="#1877F2"/>
<path d="M49.2583 36.0039L50.2559 29.5H44.0156V25.2794C44.0156 23.5 44.8873 21.7656 47.6823 21.7656H50.5195V16.2285C50.5195 16.2285 47.9447 15.7891 45.4829 15.7891C40.3435 15.7891 36.9844 18.9039 36.9844 24.543V29.5H31.2715V36.0039H36.9844V51.7266C39.3139 52.0911 41.6861 52.0911 44.0156 51.7266V36.0039H49.2583Z" fill="white"/>
</g>
<defs>
<filter id="filter0_dddd_2_104" x="0" y="0" width="81" height="101" filterUnits="userSpaceOnUse" color-interpolation-filters="sRGB">
<feFlood flood-opacity="0" result="BackgroundImageFix"/>
<feColorMatrix in="SourceAlpha" type="matrix" values="0 0 0 0 0 0 0 0 0 0 0 0 0 0 0 0 0 0 127 0" result="hardAlpha"/>
<feOffset dy="2"/>
<feGaussianBlur stdDeviation="2"/>
<feColorMatrix type="matrix" values="0 0 0 0 0 0 0 0 0 0 0 0 0 0 0 0 0 0 0.1 0"/>
<feBlend mode="normal" in2="BackgroundImageFix" result="effect1_dropShadow_2_104"/>
<feColorMatrix in="SourceAlpha" type="matrix" values="0 0 0 0 0 0 0 0 0 0 0 0 0 0 0 0 0 0 127 0" result="hardAlpha"/>
<feOffset dy="8"/>
<feGaussianBlur stdDeviation="4"/>
<feColorMatrix type="matrix" values="0 0 0 0 0 0 0 0 0 0 0 0 0 0 0 0 0 0 0.09 0"/>
<feBlend mode="normal" in2="effect1_dropShadow_2_104" result="effect2_dropShadow_2_104"/>
<feColorMatrix in="SourceAlpha" type="matrix" values="0 0 0 0 0 0 0 0 0 0 0 0 0 0 0 0 0 0 127 0" result="hardAlpha"/>
<feOffset dy="18"/>
<feGaussianBlur stdDeviation="5.5"/>
<feColorMatrix type="matrix" values="0 0 0 0 0 0 0 0 0 0 0 0 0 0 0 0 0 0 0.05 0"/>
<feBlend mode="normal" in2="effect2_dropShadow_2_104" result="effect3_dropShadow_2_104"/>
<feColorMatrix in="SourceAlpha" type="matrix" values="0 0 0 0 0 0 0 0 0 0 0 0 0 0 0 0 0 0 127 0" result="hardAlpha"/>
<feOffset dy="31"/>
<feGaussianBlur stdDeviation="6.5"/>
<feColorMatrix type="matrix" values="0 0 0 0 0 0 0 0 0 0 0 0 0 0 0 0 0 0 0.01 0"/>
<feBlend mode="normal" in2="effect3_dropShadow_2_104" result="effect4_dropShadow_2_104"/>
<feBlend mode="normal" in="SourceGraphic" in2="effect4_dropShadow_2_104" result="shape"/>
</filter>
<clipPath id="clip0_2_104">
<rect width="45" height="45" fill="white" transform="translate(18 7)"/>
</clipPath>
</defs>
</svg>
