<svg width="31" height="31" viewBox="0 0 31 31" fill="none" xmlns="http://www.w3.org/2000/svg">
<circle cx="15.5" cy="15.5" r="15.5" fill="#D9D9D9"/>
<path d="M23.875 15.0007H10.5325L14.6163 10.6411C14.8072 10.4369 14.8991 10.1736 14.8716 9.90925C14.8442 9.64484 14.6997 9.40095 14.47 9.23123C14.2403 9.06151 13.9441 8.97985 13.6466 9.00423C13.3491 9.02861 13.0747 9.15702 12.8837 9.36122L7.25875 15.3607C7.22091 15.4084 7.18706 15.4585 7.1575 15.5107C7.1575 15.5607 7.1575 15.5907 7.07875 15.6407C7.02776 15.7553 7.00106 15.8773 7 16.0006C7.00106 16.1239 7.02776 16.2459 7.07875 16.3606C7.07875 16.4106 7.07875 16.4406 7.1575 16.4906C7.18706 16.5427 7.22091 16.5928 7.25875 16.6406L12.8837 22.64C12.9895 22.7529 13.122 22.8437 13.2717 22.9059C13.4214 22.9681 13.5847 23.0002 13.75 23C14.0129 23.0005 14.2676 22.9191 14.47 22.77C14.5839 22.6861 14.6781 22.583 14.7471 22.4666C14.8161 22.3503 14.8586 22.223 14.8722 22.0921C14.8858 21.9611 14.8702 21.829 14.8263 21.7034C14.7823 21.5778 14.711 21.4612 14.6163 21.3601L10.5325 17.0005H23.875C24.1734 17.0005 24.4595 16.8952 24.6705 16.7077C24.8815 16.5201 25 16.2658 25 16.0006C25 15.7354 24.8815 15.4811 24.6705 15.2936C24.4595 15.1061 24.1734 15.0007 23.875 15.0007Z" fill="white"/>
</svg>
