<svg width="15" height="13" viewBox="0 0 15 13" fill="none" xmlns="http://www.w3.org/2000/svg">
<path d="M4.16667 11.375C3.5 11.375 2.83333 10.8062 2.5 10.5625C0.833333 9.425 0.333333 9.01875 0 8.775V12.1875C0 12.6362 0.373177 13 0.833333 13H7.5C7.96016 13 8.33333 12.6362 8.33333 12.1875V8.775C8 9.01875 7.5 9.425 5.83333 10.5625C5.5 10.8062 4.83333 11.375 4.16667 11.375ZM7.5 6.5H0.833333C0.373177 6.5 0 6.86385 0 7.3125V7.71875C0.666667 8.20625 0.583333 8.20625 3 9.9125C3.25 10.075 3.75 10.5625 4.16667 10.5625C4.58333 10.5625 5.08333 10.075 5.33333 9.99375C7.75 8.2875 7.66667 8.2875 8.33333 7.8V7.3125C8.33333 6.86385 7.96016 6.5 7.5 6.5ZM14.1667 4.0625H5.83333C5.37318 4.0625 5 4.42635 5 4.875V5.6875H7.5C8.36484 5.6875 9.07786 6.33293 9.15911 7.15559L9.16667 7.15V10.5625H14.1667C14.6268 10.5625 15 10.1987 15 9.75V4.875C15 4.42635 14.6268 4.0625 14.1667 4.0625ZM13.3333 7.3125H11.6667V5.6875H13.3333V7.3125ZM4.16667 4.875C4.16667 3.97896 4.91432 3.25 5.83333 3.25H11.6667V0.8125C11.6667 0.363848 11.2935 0 10.8333 0H2.5C2.03984 0 1.66667 0.363848 1.66667 0.8125V5.6875H4.16667V4.875Z" fill="#BFBFBF"/>
</svg>
