<svg width="13" height="13" viewBox="0 0 13 13" fill="none" xmlns="http://www.w3.org/2000/svg">
<path d="M0 4.46878C0 6.9368 2.00073 8.9375 4.46875 8.9375C4.75363 8.9375 5.03217 8.91053 5.30225 8.85958L5.91193 9.54548C5.9691 9.6098 6.03925 9.66128 6.11775 9.69653C6.19625 9.73178 6.28133 9.75 6.36738 9.75H7.3125V10.7656C7.3125 11.1022 7.58532 11.375 7.92188 11.375H8.9375V12.3906C8.9375 12.7272 9.21032 13 9.54688 13H12.3906C12.7272 13 13 12.7272 13 12.3906V10.4087C13 10.247 12.9358 10.092 12.8215 9.97775L8.71328 5.8695C8.85859 5.42887 8.9375 4.95805 8.9375 4.46875C8.9375 2.00073 6.9368 2.53909e-05 4.46878 2.42546e-10C1.99347 -2.53904e-05 0 1.99344 0 4.46878ZM4.46875 3.25C4.46875 3.92311 3.92311 4.46875 3.25 4.46875C2.57689 4.46875 2.03125 3.92311 2.03125 3.25C2.03125 2.57689 2.57689 2.03125 3.25 2.03125C3.92311 2.03125 4.46875 2.57689 4.46875 3.25Z" fill="#BFBFBF"/>
</svg>
