<svg width="88" height="88" viewBox="0 0 88 88" fill="none" xmlns="http://www.w3.org/2000/svg">
<path d="M88 44C88 68.3006 68.3006 88 44 88C19.6994 88 0 68.3006 0 44C0 19.6994 19.6994 0 44 0C68.3006 0 88 19.6994 88 44ZM38.9105 67.2976L71.5557 34.6525C72.6642 33.544 72.6642 31.7465 71.5557 30.638L67.5412 26.6235C66.4327 25.5149 64.6353 25.5149 63.5266 26.6235L36.9032 53.2467L24.4734 40.8169C23.3649 39.7084 21.5675 39.7084 20.4588 40.8169L16.4443 44.8314C15.3358 45.9399 15.3358 47.7373 16.4443 48.8459L34.8959 67.2975C36.0046 68.4062 37.8019 68.4062 38.9105 67.2976Z" fill="white"/>
</svg>
