<svg width="23" height="23" viewBox="0 0 23 23" fill="none" xmlns="http://www.w3.org/2000/svg">
<path d="M15.9107 22.6117H11.3883C11.1884 22.6117 10.9967 22.5323 10.8554 22.3909C10.714 22.2496 10.6346 22.0579 10.6346 21.858V19.5968C10.6346 19.197 10.4758 18.8136 10.1931 18.5309C9.91037 18.2482 9.52695 18.0893 9.12715 18.0893C8.72735 18.0893 8.34392 18.2482 8.06122 18.5309C7.77852 18.8136 7.6197 19.197 7.6197 19.5968V21.858C7.6197 22.0579 7.54029 22.2496 7.39894 22.3909C7.25759 22.5323 7.06588 22.6117 6.86598 22.6117H2.34364C1.74394 22.6117 1.16881 22.3735 0.744755 21.9494C0.320703 21.5254 0.0824738 20.9502 0.0824738 20.3505V15.8282C0.0824738 15.6283 0.161884 15.4366 0.303234 15.2952C0.444584 15.1539 0.636297 15.0745 0.836197 15.0745H3.09737C3.49716 15.0745 3.88059 14.9156 4.16329 14.6329C4.44599 14.3502 4.60481 13.9668 4.60481 13.567C4.60481 13.1672 4.44599 12.7838 4.16329 12.5011C3.88059 12.2184 3.49716 12.0596 3.09737 12.0596H0.836197C0.636297 12.0596 0.444584 11.9802 0.303234 11.8388C0.161884 11.6975 0.0824738 11.5057 0.0824738 11.3058V6.78351C0.0824738 6.18381 0.320703 5.60867 0.744755 5.18462C1.16881 4.76057 1.74394 4.52234 2.34364 4.52234H6.11226V3.01489C6.11226 2.21529 6.4299 1.44844 6.9953 0.883041C7.5607 0.317639 8.32755 0 9.12715 0C9.92675 0 10.6936 0.317639 11.259 0.883041C11.8244 1.44844 12.142 2.21529 12.142 3.01489V4.52234H15.9107C16.5104 4.52234 17.0855 4.76057 17.5095 5.18462C17.9336 5.60867 18.1718 6.18381 18.1718 6.78351V10.5521H19.6793C20.4789 10.5521 21.2457 10.8698 21.8111 11.4352C22.3765 12.0006 22.6942 12.7674 22.6942 13.567C22.6942 14.3666 22.3765 15.1335 21.8111 15.6989C21.2457 16.2643 20.4789 16.5819 19.6793 16.5819H18.1718V20.3505C18.1718 20.9502 17.9336 21.5254 17.5095 21.9494C17.0855 22.3735 16.5104 22.6117 15.9107 22.6117ZM12.142 21.1042H15.9107C16.1106 21.1042 16.3023 21.0248 16.4436 20.8835C16.585 20.7421 16.6644 20.5504 16.6644 20.3505V15.8282C16.6644 15.6283 16.7438 15.4366 16.8851 15.2952C17.0265 15.1539 17.2182 15.0745 17.4181 15.0745H19.6793C20.0791 15.0745 20.4625 14.9156 20.7452 14.6329C21.0279 14.3502 21.1867 13.9668 21.1867 13.567C21.1867 13.1672 21.0279 12.7838 20.7452 12.5011C20.4625 12.2184 20.0791 12.0596 19.6793 12.0596H17.4181C17.2182 12.0596 17.0265 11.9802 16.8851 11.8388C16.7438 11.6975 16.6644 11.5057 16.6644 11.3058V6.78351C16.6644 6.58361 16.585 6.39189 16.4436 6.25054C16.3023 6.10919 16.1106 6.02978 15.9107 6.02978H11.3883C11.1884 6.02978 10.9967 5.95037 10.8554 5.80902C10.714 5.66767 10.6346 5.47596 10.6346 5.27606V3.01489C10.6346 2.61509 10.4758 2.23167 10.1931 1.94897C9.91037 1.66627 9.52695 1.50745 9.12715 1.50745C8.72735 1.50745 8.34392 1.66627 8.06122 1.94897C7.77852 2.23167 7.6197 2.61509 7.6197 3.01489V5.27606C7.6197 5.47596 7.54029 5.66767 7.39894 5.80902C7.25759 5.95037 7.06588 6.02978 6.86598 6.02978H2.34364C2.14374 6.02978 1.95203 6.10919 1.81068 6.25054C1.66933 6.39189 1.58992 6.58361 1.58992 6.78351V10.5521H3.09737C3.89696 10.5521 4.66381 10.8698 5.22922 11.4352C5.79462 12.0006 6.11226 12.7674 6.11226 13.567C6.11226 14.3666 5.79462 15.1335 5.22922 15.6989C4.66381 16.2643 3.89696 16.5819 3.09737 16.5819H1.58992V20.3505C1.58992 20.5504 1.66933 20.7421 1.81068 20.8835C1.95203 21.0248 2.14374 21.1042 2.34364 21.1042H6.11226V19.5968C6.11226 18.7972 6.4299 18.0303 6.9953 17.4649C7.5607 16.8995 8.32755 16.5819 9.12715 16.5819C9.92675 16.5819 10.6936 16.8995 11.259 17.4649C11.8244 18.0303 12.142 18.7972 12.142 19.5968V21.1042Z" fill="#818181"/>
</svg>
