<svg width="17" height="14" viewBox="0 0 17 14" fill="none" xmlns="http://www.w3.org/2000/svg">
<path d="M2.3641 7.94383V10.1986C2.3641 10.7844 2.68935 11.33 3.20973 11.6108L7.27526 13.8014C7.76312 14.0662 8.34856 14.0662 8.83642 13.8014L12.9019 11.6108C13.4223 11.33 13.7476 10.7844 13.7476 10.1986V7.94383L8.83642 10.5918C8.34856 10.8566 7.76312 10.8566 7.27526 10.5918L2.3641 7.94383ZM7.27526 0.192578L0.420782 3.88365C-0.140261 4.18857 -0.140261 4.99097 0.420782 5.29589L7.27526 8.98696C7.76312 9.25175 8.34856 9.25175 8.83642 8.98696L15.3738 5.46439V10.2066C15.3738 10.6479 15.7397 11.009 16.1869 11.009C16.6341 11.009 17 10.6479 17 10.2066V5.06319C17 4.7663 16.8374 4.5015 16.5772 4.35707L8.83642 0.192578C8.34856 -0.0641926 7.76312 -0.0641926 7.27526 0.192578Z" fill="#BFBFBF"/>
</svg>
