<svg width="12" height="9" viewBox="0 0 12 9" fill="none" xmlns="http://www.w3.org/2000/svg">
<path d="M5.95833 0C3.25 0 0.937083 1.68458 0 4.0625C0.937083 6.44042 3.25 8.125 5.95833 8.125C8.66938 8.125 10.9796 6.44042 11.9167 4.0625C10.9796 1.68458 8.66938 0 5.95833 0ZM5.95833 6.77083C4.46333 6.77083 3.25 5.5575 3.25 4.0625C3.25 2.5675 4.46333 1.35417 5.95833 1.35417C7.45333 1.35417 8.66667 2.5675 8.66667 4.0625C8.66667 5.5575 7.45333 6.77083 5.95833 6.77083ZM5.95833 2.4375C5.06188 2.4375 4.33333 3.16604 4.33333 4.0625C4.33333 4.95896 5.06188 5.6875 5.95833 5.6875C6.85479 5.6875 7.58333 4.95896 7.58333 4.0625C7.58333 3.16604 6.85479 2.4375 5.95833 2.4375Z" fill="#BFBFBF"/>
</svg>
