<svg width="48" height="48" viewBox="0 0 48 48" fill="none" xmlns="http://www.w3.org/2000/svg">
<g clip-path="url(#clip0_79_1969)">
<mask id="mask0_79_1969" style="mask-type:luminance" maskUnits="userSpaceOnUse" x="0" y="0" width="48" height="48">
<path d="M0 0H47.5V47.5H0V0Z" fill="white"/>
</mask>
<g mask="url(#mask0_79_1969)">
<path d="M24.9187 33.1062C24.2725 34.0824 23.2275 34.0824 22.5825 33.1062L16.735 26.7674C16.09 25.7899 16.09 24.2074 16.735 23.2324L22.5825 11.8924C23.2275 10.9174 24.2725 10.9174 24.9187 11.8924L30.7662 23.2324C31.4112 24.2074 31.4112 25.7899 30.7662 26.7674L24.9187 33.1062Z" fill="#F4900C"/>
<path d="M36.7937 35.6062C36.1475 36.5824 35.1025 36.5824 34.4575 35.6062L28.61 29.2674C27.965 28.2899 27.965 26.7087 28.61 25.7324L36.9575 14.3924C37.6025 13.4174 38.6475 13.4174 39.2937 14.3924L42.6412 25.7324C43.2862 26.7087 43.2862 28.2899 42.6412 29.2674L36.7937 35.6062Z" fill="#F4900C"/>
<path d="M13.0437 35.6062C12.3975 36.5824 11.3512 36.5824 10.705 35.6062L4.85875 29.2674C4.21375 28.2899 4.21375 26.7087 4.85875 25.7324L8.205 14.3924C8.85125 13.4174 9.8975 13.4174 10.5437 14.3924L18.8912 25.7324C19.5363 26.7087 19.5363 28.2899 18.8912 29.2674L13.0437 35.6062Z" fill="#F4900C"/>
<path d="M42.5 15C40.755 16.747 39.0867 18.5692 37.5 20.4613L31.7938 9.39375C31.1475 8.4175 30.1025 8.4175 29.4563 9.39375L23.75 20.46L18.0438 9.39375C17.3975 8.4175 16.3513 8.4175 15.705 9.39375L10 20.46C8.4135 18.5682 6.74525 16.7465 5.00004 15C3.75004 13.75 1.89379 13.825 2.50004 16.25C3.75004 21.25 3.75004 25 3.75004 31.25V33.75C3.75004 35.0761 4.27682 36.3479 5.21451 37.2855C6.15219 38.2232 7.42396 38.75 8.75004 38.75H38.75C40.0761 38.75 41.3479 38.2232 42.2856 37.2855C43.2233 36.3479 43.75 35.0761 43.75 33.75V31.25C43.75 25 43.75 21.25 45 16.25C45.605 13.825 43.75 13.75 42.5 15Z" fill="#FFCC4D"/>
<path d="M27.5 28.75C27.5 29.7446 27.1049 30.6984 26.4017 31.4017C25.6984 32.1049 24.7446 32.5 23.75 32.5C22.7554 32.5 21.8016 32.1049 21.0983 31.4017C20.3951 30.6984 20 29.7446 20 28.75C20 27.7554 20.3951 26.8016 21.0983 26.0983C21.8016 25.3951 22.7554 25 23.75 25C24.7446 25 25.6984 25.3951 26.4017 26.0983C27.1049 26.8016 27.5 27.7554 27.5 28.75Z" fill="#5C913B"/>
<path d="M36.25 28.75C36.2499 29.0784 36.1852 29.4035 36.0594 29.7069C35.9337 30.0103 35.7494 30.2859 35.5172 30.518C35.2849 30.7502 35.0092 30.9343 34.7058 31.0599C34.4024 31.1855 34.0772 31.2501 33.7488 31.25C33.4204 31.2499 33.0952 31.1852 32.7919 31.0594C32.4885 30.9337 32.2129 30.7494 31.9808 30.5171C31.7486 30.2849 31.5645 30.0092 31.4389 29.7057C31.3133 29.4023 31.2487 29.0771 31.2488 28.7487C31.2489 28.0855 31.5126 27.4496 31.9816 26.9807C32.4507 26.5119 33.0868 26.2486 33.75 26.2488C34.4132 26.2489 35.0492 26.5125 35.5181 26.9816C35.9869 27.4507 36.2502 28.0868 36.25 28.75Z" fill="#5C913B"/>
<path d="M45 28.75C44.9999 29.0784 44.9352 29.4035 44.8094 29.7069C44.6837 30.0103 44.4994 30.2859 44.2672 30.518C44.0349 30.7502 43.7592 30.9343 43.4558 31.0599C43.1524 31.1855 42.8272 31.2501 42.4988 31.25C42.1704 31.2499 41.8452 31.1852 41.5419 31.0594C41.2385 30.9337 40.9629 30.7494 40.7308 30.5171C40.4986 30.2849 40.3145 30.0092 40.1889 29.7057C40.0633 29.4023 39.9987 29.0771 39.9988 28.7487C39.9989 28.0855 40.2626 27.4496 40.7316 26.9807C41.2007 26.5119 41.8368 26.2486 42.5 26.2488C43.1632 26.2489 43.7992 26.5125 44.2681 26.9816C44.7369 27.4507 45.0002 28.0868 45 28.75Z" fill="#5C913B"/>
<path d="M16.25 28.75C16.25 29.413 15.9866 30.0489 15.5178 30.5178C15.0489 30.9866 14.413 31.25 13.75 31.25C13.087 31.25 12.4511 30.9866 11.9822 30.5178C11.5134 30.0489 11.25 29.413 11.25 28.75C11.25 28.087 11.5134 27.4511 11.9822 26.9822C12.4511 26.5134 13.087 26.25 13.75 26.25C14.413 26.25 15.0489 26.5134 15.5178 26.9822C15.9866 27.4511 16.25 28.087 16.25 28.75Z" fill="#5C913B"/>
<path d="M7.5 28.75C7.5 29.413 7.23661 30.0489 6.76777 30.5178C6.29893 30.9866 5.66304 31.25 5 31.25C4.33696 31.25 3.70107 30.9866 3.23223 30.5178C2.76339 30.0489 2.5 29.413 2.5 28.75C2.5 28.087 2.76339 27.4511 3.23223 26.9822C3.70107 26.5134 4.33696 26.25 5 26.25C5.66304 26.25 6.29893 26.5134 6.76777 26.9822C7.23661 27.4511 7.5 28.087 7.5 28.75Z" fill="#5C913B"/>
<path d="M43.75 33.75C43.75 35.0761 43.2232 36.3479 42.2855 37.2855C41.3479 38.2232 40.0761 38.75 38.75 38.75H8.75C7.42392 38.75 6.15215 38.2232 5.21447 37.2855C4.27679 36.3479 3.75 35.0761 3.75 33.75H43.75Z" fill="#FFAC33"/>
</g>
</g>
<defs>
<clipPath id="clip0_79_1969">
<rect width="47.5" height="47.5" fill="white"/>
</clipPath>
</defs>
</svg>
