<svg width="24" height="23" viewBox="0 0 24 23" fill="none" xmlns="http://www.w3.org/2000/svg">
<path d="M22.5455 2.15507L15.5395 0.0331551H15.5063C15.4731 0.0331551 15.4399 0.033155 15.4067 0H15.2075C15.1743 0 15.1411 1.25982e-07 15.1079 0.0331551H15.0747L8.30114 2.08876L1.5276 0.0331551C1.29517 -0.0331548 1.02954 0 0.83032 0.165775C0.631098 0.33155 0.498283 0.563634 0.498283 0.795719V19.694C0.498283 20.0588 0.730709 20.3571 1.06275 20.4566L8.06872 22.5785C8.13512 22.6117 8.23473 22.6117 8.30114 22.6117C8.36755 22.6117 8.46716 22.6117 8.53357 22.5785L15.3071 20.5229L22.0807 22.5785C22.1471 22.6117 22.2467 22.6117 22.3131 22.6117C22.4791 22.6117 22.6451 22.5454 22.7779 22.4459C22.9772 22.2801 23.11 22.048 23.11 21.816V2.91764C23.11 2.58609 22.8775 2.25454 22.5455 2.15507ZM2.05886 1.88983L7.47105 3.51443V20.7219L2.05886 19.0973V1.88983ZM9.06483 3.51443L14.477 1.88983V19.0973L9.06483 20.7219V3.51443ZM21.5162 20.7219L16.104 19.0973V1.88983L21.5162 3.51443V20.7219Z" fill="#818181"/>
</svg>
