<svg width="171" height="171" viewBox="0 0 171 171" fill="none" xmlns="http://www.w3.org/2000/svg">
<path d="M85.448 170.896C132.64 170.896 170.896 132.64 170.896 85.448C170.896 38.2564 132.64 0 85.448 0C38.2564 0 0 38.2564 0 85.448C0 132.64 38.2564 170.896 85.448 170.896Z" fill="#F9B906"/>
<path d="M158.534 85.447C158.534 125.748 125.751 158.537 85.4501 158.537C74.0201 158.537 63.1961 155.902 53.5561 151.205C43.4961 146.306 34.7231 139.17 27.8871 130.441C24.7661 126.458 22.0491 122.143 19.7961 117.555C15.0391 107.86 12.3601 96.96 12.3601 85.448C12.3601 76.91 13.8331 68.715 16.5341 61.094C24.6681 38.136 43.9711 20.422 67.8721 14.502C73.5021 13.105 79.3941 12.363 85.4501 12.363C98.9311 12.363 111.566 16.029 122.418 22.418C127.257 25.271 131.742 28.659 135.79 32.511C143.422 39.773 149.489 48.66 153.428 58.616C156.723 66.925 158.534 75.976 158.534 85.447Z" fill="#F9B906"/>
<path d="M122.418 22.4171L19.7961 117.554C15.0391 107.859 12.3601 96.9591 12.3601 85.4471C12.3601 76.9091 13.8331 68.7141 16.5341 61.0931L67.8721 14.5011C73.5021 13.1041 79.3941 12.3621 85.4501 12.3621C98.9311 12.3631 111.566 16.0291 122.418 22.4171Z" fill="#FFC943"/>
<path d="M153.428 58.616L53.556 151.204C43.496 146.305 34.723 139.169 27.887 130.44L135.79 32.51C143.422 39.772 149.489 48.659 153.428 58.616Z" fill="#FFC943"/>
<path d="M87.5939 52.5915L96.1892 69.9983C96.3998 70.4254 96.71 70.7953 97.0936 71.077C97.4772 71.3586 97.9229 71.5437 98.393 71.6164L117.591 74.3868C118.11 74.4821 118.594 74.7154 118.992 75.0624C119.389 75.4093 119.687 75.8571 119.852 76.3586C120.017 76.8602 120.045 77.397 119.931 77.9128C119.818 78.4286 119.568 78.9044 119.208 79.2901L105.323 92.8233C104.983 93.1557 104.73 93.5663 104.585 94.0192C104.439 94.4722 104.407 94.9538 104.49 95.4221L107.747 114.57C107.843 115.108 107.786 115.663 107.582 116.171C107.378 116.679 107.036 117.119 106.594 117.441C106.152 117.763 105.629 117.954 105.084 117.993C104.539 118.031 103.994 117.916 103.511 117.659L86.3695 108.612C85.945 108.395 85.475 108.281 84.9982 108.281C84.5214 108.281 84.0514 108.395 83.6269 108.612L66.4855 117.659C66.0029 117.916 65.4578 118.031 64.9126 117.993C64.3673 117.954 63.844 117.763 63.4022 117.441C62.9604 117.119 62.618 116.679 62.4141 116.171C62.2102 115.663 62.153 115.108 62.2491 114.57L65.5304 95.4221C65.6086 94.9518 65.5714 94.4696 65.4221 94.0169C65.2728 93.5642 65.0158 93.1546 64.6733 92.8233L50.7888 79.2901C50.4282 78.9028 50.1788 78.4251 50.0667 77.9076C49.9547 77.3901 49.9842 76.8519 50.1522 76.3498C50.3202 75.8477 50.6204 75.4003 51.0212 75.0548C51.4221 74.7093 51.9086 74.4785 52.4295 74.3868L71.6034 71.6164C72.0735 71.5437 72.5192 71.3586 72.9028 71.077C73.2864 70.7953 73.5967 70.4254 73.8073 69.9983L82.4025 52.5915C82.6467 52.1125 83.0183 51.7104 83.4763 51.4295C83.9344 51.1486 84.4611 51 84.9982 51C85.5354 51 86.0621 51.1486 86.5201 51.4295C86.9782 51.7104 87.3498 52.1125 87.5939 52.5915Z" fill="white"/>
</svg>
