<svg width="15" height="18" viewBox="0 0 15 18" fill="none" xmlns="http://www.w3.org/2000/svg">
<path d="M4.52285 18H0.189196C0.0856735 18 0 17.9156 0 17.8137V13.3488C0 12.832 0.424798 12.4102 0.953117 12.4102H4.49072C4.50143 18.1195 4.45859 17.8348 4.52285 18ZM10.1273 8.34258V17.8137C10.1273 17.9156 10.0416 18 9.93812 18H5.06187C4.95835 18 4.87268 17.9156 4.87268 17.8137V8.34258C4.87268 7.82578 5.29748 7.40391 5.8258 7.40391H9.17777C9.70252 7.40391 10.1273 7.82578 10.1273 8.34258ZM15 11.2781V17.8137C15 17.9156 14.9143 18 14.8108 18H10.4736C10.5378 17.8348 10.495 18.2145 10.5093 10.3395H14.0505C14.5716 10.3395 15 10.7613 15 11.2781ZM9.30628 3.36797C9.25988 3.41016 9.23846 3.47344 9.25274 3.5332L9.44907 4.66172C9.48834 4.87617 9.39909 5.08711 9.22418 5.21367C9.03498 5.34727 8.79938 5.35078 8.62089 5.25586L7.58924 4.725C7.5357 4.69687 7.46787 4.69687 7.41076 4.725L6.37911 5.25586C6.18634 5.35781 5.95788 5.34023 5.77582 5.21367C5.59733 5.08711 5.51166 4.87617 5.55093 4.66172L5.74726 3.5332C5.75797 3.47344 5.73655 3.41016 5.69372 3.36797L4.86197 2.56641C4.7049 2.41523 4.65136 2.19375 4.71561 1.98984C4.78344 1.78242 4.96192 1.63828 5.17611 1.60664L6.32913 1.44492C6.39338 1.43437 6.44693 1.3957 6.47192 1.34297L6.98953 0.316406C7.08591 0.119531 7.28225 0 7.5 0C7.71775 0 7.91409 0.119531 8.01047 0.312891L8.52451 1.33945C8.55307 1.39219 8.60662 1.43438 8.6673 1.44141L9.82032 1.60312C10.0381 1.63477 10.213 1.78242 10.2808 1.98633C10.3486 2.19023 10.2915 2.41172 10.1345 2.56289L9.30628 3.36797Z" fill="white"/>
</svg>
