<svg width="58" height="58" viewBox="0 0 58 58" fill="none" xmlns="http://www.w3.org/2000/svg">
<circle cx="29" cy="29" r="29" fill="white"/>
<circle cx="29.5" cy="28.5" r="21.5" fill="#D36B6B"/>
<path d="M25 38H21C20.7348 38 20.4804 37.8946 20.2929 37.7071C20.1054 37.5196 20 37.2652 20 37V33C20 32.7348 19.8946 32.4804 19.7071 32.2929C19.5196 32.1054 19.2652 32 19 32C18.7348 32 18.4804 32.1054 18.2929 32.2929C18.1054 32.4804 18 32.7348 18 33V37C18 37.7956 18.3161 38.5587 18.8787 39.1213C19.4413 39.6839 20.2044 40 21 40H25C25.2652 40 25.5196 39.8946 25.7071 39.7071C25.8946 39.5196 26 39.2652 26 39C26 38.7348 25.8946 38.4804 25.7071 38.2929C25.5196 38.1054 25.2652 38 25 38ZM39 32C38.7348 32 38.4804 32.1054 38.2929 32.2929C38.1054 32.4804 38 32.7348 38 33V37C38 37.2652 37.8946 37.5196 37.7071 37.7071C37.5196 37.8946 37.2652 38 37 38H33C32.7348 38 32.4804 38.1054 32.2929 38.2929C32.1054 38.4804 32 38.7348 32 39C32 39.2652 32.1054 39.5196 32.2929 39.7071C32.4804 39.8946 32.7348 40 33 40H37C37.7956 40 38.5587 39.6839 39.1213 39.1213C39.6839 38.5587 40 37.7956 40 37V33C40 32.7348 39.8946 32.4804 39.7071 32.2929C39.5196 32.1054 39.2652 32 39 32ZM37 18H33C32.7348 18 32.4804 18.1054 32.2929 18.2929C32.1054 18.4804 32 18.7348 32 19C32 19.2652 32.1054 19.5196 32.2929 19.7071C32.4804 19.8946 32.7348 20 33 20H37C37.2652 20 37.5196 20.1054 37.7071 20.2929C37.8946 20.4804 38 20.7348 38 21V25C38 25.2652 38.1054 25.5196 38.2929 25.7071C38.4804 25.8946 38.7348 26 39 26C39.2652 26 39.5196 25.8946 39.7071 25.7071C39.8946 25.5196 40 25.2652 40 25V21C40 20.2044 39.6839 19.4413 39.1213 18.8787C38.5587 18.3161 37.7956 18 37 18ZM19 26C19.2652 26 19.5196 25.8946 19.7071 25.7071C19.8946 25.5196 20 25.2652 20 25V21C20 20.7348 20.1054 20.4804 20.2929 20.2929C20.4804 20.1054 20.7348 20 21 20H25C25.2652 20 25.5196 19.8946 25.7071 19.7071C25.8946 19.5196 26 19.2652 26 19C26 18.7348 25.8946 18.4804 25.7071 18.2929C25.5196 18.1054 25.2652 18 25 18H21C20.2044 18 19.4413 18.3161 18.8787 18.8787C18.3161 19.4413 18 20.2044 18 21V25C18 25.2652 18.1054 25.5196 18.2929 25.7071C18.4804 25.8946 18.7348 26 19 26ZM27 22H23C22.7348 22 22.4804 22.1054 22.2929 22.2929C22.1054 22.4804 22 22.7348 22 23V27C22 27.2652 22.1054 27.5196 22.2929 27.7071C22.4804 27.8946 22.7348 28 23 28H27C27.2652 28 27.5196 27.8946 27.7071 27.7071C27.8946 27.5196 28 27.2652 28 27V23C28 22.7348 27.8946 22.4804 27.7071 22.2929C27.5196 22.1054 27.2652 22 27 22ZM26 26H24V24H26V26ZM31 28H35C35.2652 28 35.5196 27.8946 35.7071 27.7071C35.8946 27.5196 36 27.2652 36 27V23C36 22.7348 35.8946 22.4804 35.7071 22.2929C35.5196 22.1054 35.2652 22 35 22H31C30.7348 22 30.4804 22.1054 30.2929 22.2929C30.1054 22.4804 30 22.7348 30 23V27C30 27.2652 30.1054 27.5196 30.2929 27.7071C30.4804 27.8946 30.7348 28 31 28ZM32 24H34V26H32V24ZM27 30H23C22.7348 30 22.4804 30.1054 22.2929 30.2929C22.1054 30.4804 22 30.7348 22 31V35C22 35.2652 22.1054 35.5196 22.2929 35.7071C22.4804 35.8946 22.7348 36 23 36H27C27.2652 36 27.5196 35.8946 27.7071 35.7071C27.8946 35.5196 28 35.2652 28 35V31C28 30.7348 27.8946 30.4804 27.7071 30.2929C27.5196 30.1054 27.2652 30 27 30ZM26 34H24V32H26V34ZM31 33C31.2652 33 31.5196 32.8946 31.7071 32.7071C31.8946 32.5196 32 32.2652 32 32C32.2652 32 32.5196 31.8946 32.7071 31.7071C32.8946 31.5196 33 31.2652 33 31C33 30.7348 32.8946 30.4804 32.7071 30.2929C32.5196 30.1054 32.2652 30 32 30H31C30.7348 30 30.4804 30.1054 30.2929 30.2929C30.1054 30.4804 30 30.7348 30 31V32C30 32.2652 30.1054 32.5196 30.2929 32.7071C30.4804 32.8946 30.7348 33 31 33ZM35 30C34.7348 30 34.4804 30.1054 34.2929 30.2929C34.1054 30.4804 34 30.7348 34 31V34C33.7348 34 33.4804 34.1054 33.2929 34.2929C33.1054 34.4804 33 34.7348 33 35C33 35.2652 33.1054 35.5196 33.2929 35.7071C33.4804 35.8946 33.7348 36 34 36H35C35.2652 36 35.5196 35.8946 35.7071 35.7071C35.8946 35.5196 36 35.2652 36 35V31C36 30.7348 35.8946 30.4804 35.7071 30.2929C35.5196 30.1054 35.2652 30 35 30ZM31 34C30.8022 34 30.6089 34.0586 30.4444 34.1685C30.28 34.2784 30.1518 34.4346 30.0761 34.6173C30.0004 34.8 29.9806 35.0011 30.0192 35.1951C30.0578 35.3891 30.153 35.5673 30.2929 35.7071C30.4327 35.847 30.6109 35.9422 30.8049 35.9808C30.9989 36.0194 31.2 35.9996 31.3827 35.9239C31.5654 35.8482 31.7216 35.72 31.8315 35.5556C31.9414 35.3911 32 35.1978 32 35C32 34.7348 31.8946 34.4804 31.7071 34.2929C31.5196 34.1054 31.2652 34 31 34Z" fill="white"/>
</svg>
